<?xml version="1.0" encoding="utf-8"?>
<!-- Generator: Adobe Illustrator 21.1.0, SVG Export Plug-In . SVG Version: 6.00 Build 0)  -->
<svg version="1.1" class="mainIcon" id="circle_x5F_triangle" xmlns="http://www.w3.org/2000/svg" xmlns:xlink="http://www.w3.org/1999/xlink"
	 x="0px" y="0px" viewBox="0 0 612 792" style="enable-background:new 0 0 612 792;" xml:space="preserve">
<style type="text/css">
	.st0{fill:#FFFFFF;}
	#details{
		display: block;
	}
	@media screen and (max-width : 150px){
		#details{
			display: none;
		}
	}
</style>
<g id="circle">
	<circle class="st0" cx="307.5" cy="317.5" r="85.5"/>
	<g>
		<path d="M390.9,316.2c-0.3,33.3-19.7,64-50.1,77.9c-33.5,15.2-74.6,7-97.9-21.9c-21.6-26.8-24.7-65.2-7.9-95.1
			c16.6-29.5,49.8-46.7,83.4-43.1C360.3,238.2,390.5,274.8,390.9,316.2c0,1.3,4.2,2.5,4.2,2.7c-0.3-35.6-22.3-66.8-54.8-80.9
			c-33.7-14.6-73.9-6.3-98.6,21.1c-25.3,28.2-28.9,71.1-8.6,103.1c18.3,28.9,53.3,46,87.4,41.6c42.4-5.5,74.3-42.4,74.6-84.9
			C395.1,317.5,390.9,316.3,390.9,316.2z"/>
	</g>
</g>
<g id="triangle">
	<polygon class="st0" points="242.3,262.2 298.7,402.6 372.7,262.2 	"/>
	<g>
		<path d="M242.3,264.7c16.9,42,33.8,84,50.7,126c0.4,1,4.8,14.3,5.8,14.4c1.2,0,6.4-12.1,6.9-13.2c12.6-24,25.3-48,37.9-71.9
			c9.7-18.4,19.4-36.8,29.1-55.2c0.2-0.4-0.1-5,0-5c-38.1,0-76.2,0-114.4,0c-5.4,0-10.7,0-16.1,0
			C242.2,259.7,242.2,264.7,242.3,264.7c38.1,0,76.2,0,114.4,0c5.4,0,10.7,0,16.1,0c0-1.7,0-3.3,0-5
			c-21.2,40.2-42.4,80.4-63.7,120.7c-2.1,4-4.2,7.9-6.3,11.9c-1,1.8-2.1,5.5-3.6,6.9c-1,0.9,0,1-0.9-0.3c-1.4-2-2.1-5.1-3-7.4
			c-9.7-24.1-19.4-48.2-29.1-72.3c-8-19.8-16-39.7-23.9-59.5C242.8,261.2,241.7,263.3,242.3,264.7z"/>
	</g>
</g>
</svg>
