<?xml version="1.0" encoding="utf-8"?>
<!-- Generator: Adobe Illustrator 21.1.0, SVG Export Plug-In . SVG Version: 6.00 Build 0)  -->
<svg version="1.1" class="mainIcon" id="photoshop" xmlns="http://www.w3.org/2000/svg" xmlns:xlink="http://www.w3.org/1999/xlink" x="0px" y="0px"
	 viewBox="0 0 126 109" style="enable-background:new 0 0 126 109;" xml:space="preserve">
<style type="text/css">
	.st0{fill:#FFFFFF;}
	.st1{font-family:'MyriadPro-Regular';}
	.st2{font-size:62.1992px;}
	#details{
		display: block;
	}
	@media screen and (max-width : 150px){
		#details{
			display: none;
		}
	}
</style>
<g id="border">
	<rect x="2" class="st0" width="122" height="109"/>
	<g>
		<path d="M124.9,108.4c-33.7,0-67.5,0-101.2,0c-6.2,0-12.5,0-18.7,0c-0.4,0-1.3,0.2-1.6,0c-0.8-0.4,0.4,0.6,0.1,0
			c-0.5-1,0-3.4,0-4.5c0-18.6,0-37.2,0-55.8c0-16.2,0-32.4,0-48.5c-0.8,0.3-1.6,0.6-2.4,1c33.7,0,67.5,0,101.2,0
			c6.2,0,12.5,0,18.7,0c0.4,0,1.3-0.2,1.6,0c0.8,0.4-0.4-0.6-0.1,0c0.5,1,0,3.4,0,4.5c0,18.6,0,37.2,0,55.8c0,16.2,0,32.4,0,48.5
			c0,0.4,2.9,0,2.9-0.8c0-31.8,0-63.7,0-95.5c0-4.5,0-9,0-13.5c0-0.2-0.4-0.2-0.5-0.2c-35.6,0-71.1,0-106.7,0c-5.1,0-10.2,0-15.3,0
			c-0.5,0-2.4,0.2-2.4,1c0,31.8,0,63.7,0,95.5c0,4.5,0,9,0,13.5c0,0.2,0.4,0.2,0.5,0.2c35.6,0,71.1,0,106.7,0c5.1,0,10.2,0,15.3,0
			C123.6,109.6,126.3,108.4,124.9,108.4z"/>
	</g>
</g>
<text id="Ps_x5F_text" transform="matrix(1 0 0 1 36.5273 77.0605)" class="st1 st2">Ps</text>
</svg>
