<?xml version="1.0" encoding="utf-8"?>
<!-- Generator: Adobe Illustrator 21.1.0, SVG Export Plug-In . SVG Version: 6.00 Build 0)  -->
<svg version="1.1" class="mainIcon" id="Layer_1" xmlns="http://www.w3.org/2000/svg" xmlns:xlink="http://www.w3.org/1999/xlink" x="0px" y="0px"
	 viewBox="0 0 612 792" style="enable-background:new 0 0 612 792;" xml:space="preserve">
<style type="text/css">
	.st0{fill:#FFFFFF;}
	#details{
		display: block;
	}
	@media screen and (max-width : 150px){
		#details{
			display: none;
		}
	}
</style>
<g>
	<ellipse class="st0" cx="314.8" cy="331.5" rx="55.8" ry="64.5"/>
	<g>
		<path d="M368.1,331.5c-0.2,23.6-11.9,47.9-34.3,57.9c-22.1,9.9-46.9,0.5-60.4-18.8c-14.3-20.4-15.9-48.8-4.5-70.9
			c10.5-20.4,32.6-34.5,55.9-29.2C352.4,276.8,367.9,304.9,368.1,331.5c0,3.2,5,3.2,5,0c-0.3-26-13.6-52.7-38.5-63
			c-23.6-9.8-49.5-0.3-64.3,19.7c-16.3,22-18.1,53.3-5.6,77.5c11.5,22.3,35.7,37,61,31.6c30-6.4,47.2-36.9,47.5-65.8
			C373.2,328.3,368.2,328.3,368.1,331.5z"/>
	</g>
</g>
<g>
	<polygon class="st0" points="359.8,303.6 307.8,323 269.8,359.4 318.5,349.6 	"/>
	<g>
		<path d="M359.2,302.9c-14.9,5.6-29.9,11.2-44.8,16.8c-3.6,1.4-6.7,2.1-9.5,4.8c-6.4,6.2-12.9,12.3-19.3,18.5
			c-5.6,5.4-11.2,10.8-16.8,16.1c-1,1,0.7,1.2,1.4,1.1c15.7-3.2,31.6-5.8,47.1-9.5c3.8-0.9,5.8-4.5,8.3-7.3
			c6.8-7.6,13.6-15.2,20.4-22.8c5-5.6,10-11.2,15-16.8c1.2-1.3-1.7-1.3-2.3-0.5c-10.8,12-21.5,24-32.3,36.1
			c-2.4,2.7-4.8,5.4-7.2,8.1c-0.5,0.6-1,1.1-1.5,1.7c-0.4,0.4,1.5-0.3,0-0.1c-8.1,1.2-16.1,3.2-24.1,4.9c-7.9,1.6-15.9,3.2-23.8,4.8
			c0.5,0.4,0.9,0.7,1.4,1.1c11.3-10.8,22.6-21.7,34-32.5c1-0.9,2-1.9,3-2.8c0.3-0.3,1.8-1.4,0.5-0.7c1.5-0.9,3.5-1.3,5.2-2
			c8.8-3.3,17.5-6.6,26.3-9.9c6.8-2.6,13.6-5.1,20.4-7.7C362.2,303.5,360.5,302.4,359.2,302.9z"/>
	</g>
</g>
<g>
	<line class="st0" x1="306.7" y1="324.8" x2="321.7" y2="348.1"/>
	<g>
		<path d="M305.3,325.4c5,7.8,10,15.5,15,23.3c0.7,1,3.4,0,2.7-1.2c-5-7.8-10-15.5-15-23.3C307.3,323.2,304.6,324.2,305.3,325.4
			L305.3,325.4z"/>
	</g>
</g>
</svg>
