<svg class="mainIcon" id="Line_triangle" data-name="Line triangle" xmlns="http://www.w3.org/2000/svg" viewBox="0 0 162.65 167.97"><defs><style>.cls-1{fill:#fff;}.cls-2{fill:#231f20;}.cls-3{fill:none;}
	#details{
		display: block;
	}
	@media screen and (max-width : 150px){
		#details{
			display: none;
		}
	}
</style></defs><title>Triangle</title><g id="triangle"><polygon class="cls-1" points="13.24 7.5 78.25 160.5 155.25 7.5 13.24 7.5"/><path class="cls-2" d="M6.76,11.29l56.95,134,8,19c2.19,5.15,10.61,4.66,13,0l25.9-51.47,41.57-82.6,9.53-18.93c2.51-5-.52-11.29-6.48-11.29h-142c-9.65,0-9.67,15,0,15h142L148.76,3.71l-25.9,51.47-41.57,82.6-9.53,18.93h13l-56.95-134-8.05-19C18.16-.05,12.7-.8,9.5,1,5.57,3.23,5.19,7.58,6.76,11.29Z" transform="translate(0 0)"/></g><g id="line"><line class="cls-3" x1="7.24" y1="102.5" x2="149.24" y2="102.5"/><path class="cls-2" d="M7.24,110h142c9.65,0,9.67-15,0-15H7.24C-2.41,95-2.43,110,7.24,110Z" transform="translate(0 0)"/></g></svg>